<svg width="190" height="43" viewBox="0 0 190 43" fill="none" xmlns="http://www.w3.org/2000/svg">
<path d="M45.6494 37.22C45.5094 35.48 45.4094 33.79 45.3494 32.15C45.3094 30.51 45.2894 28.96 45.2894 27.5C45.2894 25.08 45.3394 22.91 45.4394 20.99C45.5394 19.05 45.6394 17.38 45.7394 15.98C44.0194 16.08 42.3494 16.21 40.7294 16.37C39.1094 16.53 37.6094 16.74 36.2294 17L36.2894 11.99C38.6294 11.57 41.0294 11.27 43.4894 11.09C45.9494 10.89 48.4094 10.79 50.8694 10.79C52.6294 10.79 54.3094 10.83 55.9094 10.91C57.5294 10.99 59.0794 11.11 60.5594 11.27L60.5294 16.46C59.1294 16.24 57.6094 16.09 55.9694 16.01C54.3494 15.91 52.6894 15.86 50.9894 15.86C50.8894 17.22 50.7994 18.74 50.7194 20.42C50.6394 22.08 50.5994 23.86 50.5994 25.76C50.5994 27.46 50.6394 29.25 50.7194 31.13C50.8194 33.01 50.9394 34.99 51.0794 37.07L45.6494 37.22ZM67.3638 37.13L62.2338 36.17C63.1938 32.29 64.1938 28.78 65.2338 25.64C66.2938 22.5 67.3838 19.81 68.5038 17.57C69.6238 15.33 70.7638 13.61 71.9238 12.41C73.1038 11.19 74.2838 10.58 75.4638 10.58C77.8438 10.58 80.0338 12.79 82.0338 17.21C84.0338 21.61 85.7338 27.99 87.1338 36.35L81.8238 37.07C81.5838 35.75 81.3238 34.4 81.0438 33.02C80.7638 31.62 80.4738 30.26 80.1738 28.94C79.6938 28.92 79.1738 28.91 78.6138 28.91C77.6338 28.91 76.5938 28.93 75.4938 28.97C74.4138 29.01 73.3438 29.08 72.2838 29.18C71.2438 29.26 70.2738 29.35 69.3738 29.45C68.9938 30.73 68.6238 32.03 68.2638 33.35C67.9238 34.65 67.6238 35.91 67.3638 37.13ZM72.8838 19.61C72.4438 20.55 71.8538 22.07 71.1138 24.17C71.9738 24.07 72.8838 24 73.8438 23.96C74.8038 23.9 75.7438 23.87 76.6638 23.87C77.4438 23.87 78.1938 23.89 78.9138 23.93C78.6338 22.91 78.3638 22 78.1038 21.2C77.8638 20.4 77.6438 19.77 77.4438 19.31C77.0238 18.23 76.6538 17.47 76.3338 17.03C76.0138 16.57 75.6838 16.34 75.3438 16.34C74.9838 16.34 74.6238 16.58 74.2638 17.06C73.9038 17.52 73.4438 18.37 72.8838 19.61ZM100.489 37.4C98.8087 37.4 97.2487 37.15 95.8087 36.65C94.3687 36.15 93.0687 35.49 91.9087 34.67C90.7687 33.83 89.7687 32.93 88.9087 31.97L91.9087 27.2C92.1687 27.88 92.5987 28.53 93.1987 29.15C93.8187 29.77 94.5387 30.32 95.3587 30.8C96.1787 31.28 97.0387 31.66 97.9387 31.94C98.8587 32.22 99.7587 32.36 100.639 32.36C101.959 32.36 103.009 32.15 103.789 31.73C104.569 31.29 104.959 30.71 104.959 29.99C104.959 29.43 104.779 28.97 104.419 28.61C104.079 28.23 103.679 27.93 103.219 27.71C102.779 27.47 102.399 27.26 102.079 27.08C101.839 26.96 101.399 26.78 100.759 26.54C100.139 26.28 99.4387 26 98.6587 25.7C97.8787 25.4 97.1387 25.12 96.4387 24.86C95.7387 24.58 95.1887 24.35 94.7887 24.17C91.8087 22.83 90.3187 20.76 90.3187 17.96C90.3187 17.06 90.4887 16.18 90.8287 15.32C91.1887 14.44 91.7287 13.64 92.4487 12.92C93.1687 12.2 94.0887 11.63 95.2087 11.21C96.3287 10.79 97.6687 10.58 99.2287 10.58C100.929 10.58 102.439 10.77 103.759 11.15C105.079 11.51 106.239 11.97 107.239 12.53C108.259 13.09 109.129 13.68 109.849 14.3L107.089 18.92C104.869 16.72 102.359 15.62 99.5587 15.62C98.3787 15.62 97.4787 15.75 96.8587 16.01C96.2587 16.25 95.8487 16.53 95.6287 16.85C95.4287 17.15 95.3287 17.4 95.3287 17.6C95.3287 17.94 95.4487 18.28 95.6887 18.62C95.9487 18.96 96.5187 19.32 97.3987 19.7C97.7587 19.86 98.2387 20.06 98.8387 20.3C99.4587 20.52 100.139 20.77 100.879 21.05C101.639 21.33 102.379 21.63 103.099 21.95C103.839 22.25 104.509 22.56 105.109 22.88C105.829 23.28 106.569 23.77 107.329 24.35C108.089 24.93 108.729 25.65 109.249 26.51C109.789 27.35 110.059 28.38 110.059 29.6C110.059 30.34 109.919 31.16 109.639 32.06C109.359 32.94 108.869 33.79 108.169 34.61C107.469 35.43 106.499 36.1 105.259 36.62C104.019 37.14 102.429 37.4 100.489 37.4ZM113.301 37.13C113.241 35.39 113.211 33.43 113.211 31.25C113.211 29.21 113.241 27.05 113.301 24.77C113.361 22.49 113.461 20.17 113.601 17.81C113.741 15.45 113.911 13.15 114.111 10.91L119.331 11C119.151 12.4 118.991 13.83 118.851 15.29C118.731 16.73 118.631 18.18 118.551 19.64C119.391 19.06 120.401 18.39 121.581 17.63C122.781 16.85 124.061 16.07 125.421 15.29C126.781 14.49 128.141 13.73 129.501 13.01C130.881 12.29 132.171 11.68 133.371 11.18L134.841 16.28C133.621 16.78 132.391 17.33 131.151 17.93C129.931 18.53 128.761 19.13 127.641 19.73C126.541 20.31 125.561 20.87 124.701 21.41C123.841 21.93 123.161 22.39 122.661 22.79C122.161 23.17 121.911 23.45 121.911 23.63C121.911 23.89 122.301 24.33 123.081 24.95C123.861 25.57 124.921 26.3 126.261 27.14C127.601 27.98 129.121 28.86 130.821 29.78C132.541 30.7 134.321 31.6 136.161 32.48L133.371 37.1C131.091 35.92 128.991 34.74 127.071 33.56C125.171 32.36 123.471 31.23 121.971 30.17C120.491 29.11 119.261 28.2 118.281 27.44C118.281 28.18 118.281 28.92 118.281 29.66C118.281 31 118.291 32.3 118.311 33.56C118.351 34.8 118.391 35.96 118.431 37.04L113.301 37.13ZM138.821 37.07C138.801 36.91 138.781 36.7 138.761 36.44C138.761 36.18 138.761 35.88 138.761 35.54C138.761 34.72 138.781 33.72 138.821 32.54C138.881 31.34 138.951 30.04 139.031 28.64C139.111 27.22 139.201 25.79 139.301 24.35C139.401 22.89 139.501 21.49 139.601 20.15C139.721 18.79 139.831 17.58 139.931 16.52C139.611 16.56 139.301 16.6 139.001 16.64L138.341 11.54C140.421 11.26 142.631 11.06 144.971 10.94C147.331 10.82 149.631 10.76 151.871 10.76C153.551 10.76 155.161 10.8 156.701 10.88C158.261 10.94 159.661 11.03 160.901 11.15L160.451 16.13C159.531 15.95 158.481 15.83 157.301 15.77C156.121 15.69 154.851 15.65 153.491 15.65C152.091 15.65 150.641 15.69 149.141 15.77C147.661 15.83 146.221 15.91 144.821 16.01C144.741 16.81 144.661 17.64 144.581 18.5C144.521 19.36 144.461 20.25 144.401 21.17C145.441 21.03 146.591 20.93 147.851 20.87C149.131 20.81 150.401 20.78 151.661 20.78C153.101 20.78 154.451 20.82 155.711 20.9C156.991 20.98 157.971 21.12 158.651 21.32L158.291 26.15C156.891 25.99 155.581 25.88 154.361 25.82C153.141 25.74 151.951 25.7 150.791 25.7C148.531 25.7 146.301 25.85 144.101 26.15C143.981 28.25 143.881 30.25 143.801 32.15C143.741 34.05 143.691 35.65 143.651 36.95L138.821 37.07ZM173.376 36.95C173.356 36.31 173.336 35.64 173.316 34.94C173.316 34.24 173.316 33.49 173.316 32.69C173.316 31.65 173.326 30.57 173.346 29.45C173.366 28.33 173.406 27.22 173.466 26.12C172.366 25.56 171.306 24.75 170.286 23.69C169.286 22.61 168.336 21.42 167.436 20.12C166.536 18.8 165.726 17.48 165.006 16.16C164.286 14.84 163.676 13.65 163.176 12.59L168.126 10.58C168.466 11.46 168.906 12.41 169.446 13.43C169.986 14.43 170.576 15.42 171.216 16.4C171.856 17.38 172.486 18.27 173.106 19.07C173.746 19.85 174.316 20.48 174.816 20.96C175.336 21.44 175.736 21.68 176.016 21.68C176.316 21.68 176.686 21.47 177.126 21.05C177.586 20.63 178.066 20.08 178.566 19.4C179.086 18.7 179.606 17.94 180.126 17.12C180.666 16.28 181.166 15.44 181.626 14.6C182.106 13.74 182.516 12.95 182.856 12.23C183.216 11.49 183.476 10.89 183.636 10.43L188.676 12.35C188.116 13.43 187.476 14.65 186.756 16.01C186.036 17.35 185.246 18.69 184.386 20.03C183.526 21.37 182.616 22.58 181.656 23.66C180.696 24.74 179.696 25.56 178.656 26.12C178.616 27.12 178.596 28.3 178.596 29.66C178.596 31 178.606 32.33 178.626 33.65C178.666 34.97 178.696 36.1 178.716 37.04C178.356 37.04 177.926 37.04 177.426 37.04C176.926 37.06 176.416 37.07 175.896 37.07C175.376 37.09 174.896 37.1 174.456 37.1C174.036 37.12 173.736 37.13 173.556 37.13L173.376 36.95Z" fill="#00FFC2"/>
<path d="M2 27H27" stroke="#00FFC2" stroke-width="4" stroke-linecap="round"/>
<path d="M2 21H27" stroke="#00FFC2" stroke-width="4" stroke-linecap="round"/>
</svg>
